<svg fill="currentColor" version="1.1" id="hatch-logo" height="512" width="512" viewBox="180 200 256 256" xml:space="preserve">
    <path d="M621.5,382.6h-30v30h30V382.6z M500.5,412.6v-81.4H534v81.3h31.5V229.2H534v74.7h-33.5v-74.7H469v183.5H500.5z M442,290.4
	V277c0-27.4-15.3-50.3-46.7-50.3c-33.1,0-48.3,21.1-48.3,47v94.5c0,25.9,15.3,47,48.3,47c31.5,0,46.7-21.1,46.7-47V347h-31.5v22.1
	c0,11.9-3.8,18.6-15.3,18.6c-12.7,0-16.7-6.6-16.7-20.4v-92.9c0-13.8,4.1-20.4,16.7-20.4c8.1,0,15.3,6.6,15.3,22.1v14.2H442V290.4z
	 M271.6,412.6h31.5V256.6h30.5v-27.4h-92.5v27.4h30.5L271.6,412.6L271.6,412.6z M173.7,371.9h34.6l5.5,40.6h30.5l-33.8-183.5h-39.1
	l-33.8,183.5H168L173.7,371.9z M190.7,265.8h0.5l12.4,78.7h-25.4L190.7,265.8z M53,412.6v-81.4h33.5v81.3H118V229.2H86.5v74.7H53
	v-74.7H21.5v183.5H53z" />
</svg>